<svg xmlns="http://www.w3.org/2000/svg" width="1400" height="860" viewBox="0 0 1400 860">
  <defs>
    <style>
      .title { font: 700 20px -apple-system, BlinkMacSystemFont, "Segoe UI", Roboto, "Helvetica Neue", Arial, "Noto Sans", "PingFang SC", "Hiragino Sans GB", "Microsoft YaHei", sans-serif; fill: #0f172a; }
      .subtitle { font: 500 13px -apple-system, BlinkMacSystemFont, "Segoe UI", Roboto, "Helvetica Neue", Arial, "Noto Sans", "PingFang SC", "Hiragino Sans GB", "Microsoft YaHei", sans-serif; fill: #475569; }
      .label { font: 600 12px -apple-system, BlinkMacSystemFont, "Segoe UI", Roboto, "Helvetica Neue", Arial, "Noto Sans", "PingFang SC", "Hiragino Sans GB", "Microsoft YaHei", sans-serif; fill: #0f172a; }
      .small { font: 500 11px -apple-system, BlinkMacSystemFont, "Segoe UI", Roboto, "Helvetica Neue", Arial, "Noto Sans", "PingFang SC", "Hiragino Sans GB", "Microsoft YaHei", sans-serif; fill: #64748b; }
      .axis { stroke: #e2e8f0; stroke-width: 1; }
      .axis-strong { stroke: #cbd5e1; stroke-width: 1.2; }
      .bar-text { font: 600 11px -apple-system, BlinkMacSystemFont, "Segoe UI", Roboto, "Helvetica Neue", Arial, "Noto Sans", "PingFang SC", "Hiragino Sans GB", "Microsoft YaHei", sans-serif; fill: #0f172a; }
      .chip { font: 600 11px -apple-system, BlinkMacSystemFont, "Segoe UI", Roboto, "Helvetica Neue", Arial, "Noto Sans", "PingFang SC", "Hiragino Sans GB", "Microsoft YaHei", sans-serif; fill: #0f172a; }
    </style>
    <filter id="shadow" x="-20%" y="-20%" width="140%" height="140%">
      <feDropShadow dx="0" dy="2" stdDeviation="3" flood-color="#0f172a" flood-opacity="0.12"/>
    </filter>
    <clipPath id="clipChart">
      <rect x="380" y="176" width="960" height="524" rx="0"/>
    </clipPath>
  </defs>

  <rect x="0" y="0" width="1400" height="860" rx="18" fill="#ffffff"/>
  <rect x="18" y="18" width="1364" height="824" rx="16" fill="#f8fafc" stroke="#e2e8f0"/>

  <text x="48" y="66" class="title">MDT系统内网部署（科室试点）- 1个月上线排期（2025-12-30 ~ 2026-01-31）</text>
  <text x="48" y="92" class="subtitle">dateFormat: YYYY-MM-DD ｜ axisFormat: %m/%d</text>

  <rect x="38" y="112" width="1324" height="710" rx="14" fill="#ffffff" stroke="#e2e8f0" filter="url(#shadow)"/>

  <text x="48" y="148" class="label">任务</text>
  <text x="380" y="148" class="label">时间轴</text>

  <g>
    <line x1="380" y1="176" x2="1340" y2="176" class="axis-strong"/>
    <line x1="380" y1="700" x2="1340" y2="700" class="axis-strong"/>
    <line x1="380" y1="176" x2="380" y2="700" class="axis-strong"/>
    <line x1="1340" y1="176" x2="1340" y2="700" class="axis-strong"/>

    <line x1="380.00" y1="176" x2="380.00" y2="700" class="axis-strong"/>
    <line x1="583.64" y1="176" x2="583.64" y2="700" class="axis-strong"/>
    <line x1="787.27" y1="176" x2="787.27" y2="700" class="axis-strong"/>
    <line x1="990.91" y1="176" x2="990.91" y2="700" class="axis-strong"/>
    <line x1="1194.55" y1="176" x2="1194.55" y2="700" class="axis-strong"/>
    <line x1="1310.91" y1="176" x2="1310.91" y2="700" class="axis-strong"/>

    <line x1="438.18" y1="176" x2="438.18" y2="700" class="axis" stroke-dasharray="4 4" opacity="0.7"/>

    <text x="380.00" y="194" class="small">12/30</text>
    <text x="583.64" y="194" class="small">01/06</text>
    <text x="787.27" y="194" class="small">01/13</text>
    <text x="990.91" y="194" class="small">01/20</text>
    <text x="1194.55" y="194" class="small">01/27</text>
    <text x="1340.00" y="194" class="small" text-anchor="end">01/31</text>

    <text x="438.18" y="194" class="small" text-anchor="middle">01/01</text>
  </g>

  <g>
    <line x1="48" y1="224" x2="1352" y2="224" class="axis"/>
    <line x1="48" y1="258" x2="1352" y2="258" class="axis"/>
    <line x1="48" y1="292" x2="1352" y2="292" class="axis"/>
    <line x1="48" y1="326" x2="1352" y2="326" class="axis"/>
    <line x1="48" y1="360" x2="1352" y2="360" class="axis"/>
    <line x1="48" y1="394" x2="1352" y2="394" class="axis"/>
    <line x1="48" y1="428" x2="1352" y2="428" class="axis"/>
    <line x1="48" y1="462" x2="1352" y2="462" class="axis"/>
    <line x1="48" y1="496" x2="1352" y2="496" class="axis"/>
    <line x1="48" y1="530" x2="1352" y2="530" class="axis"/>
    <line x1="48" y1="564" x2="1352" y2="564" class="axis"/>
    <line x1="48" y1="598" x2="1352" y2="598" class="axis"/>
    <line x1="48" y1="632" x2="1352" y2="632" class="axis"/>
    <line x1="48" y1="666" x2="1352" y2="666" class="axis"/>
    <line x1="48" y1="700" x2="1352" y2="700" class="axis"/>
  </g>

  <g>
    <rect x="48" y="200" width="76" height="18" rx="9" fill="#e0f2fe" stroke="#7dd3fc"/>
    <text x="86" y="213" class="chip" text-anchor="middle">需求&amp;方案</text>

    <rect x="48" y="268" width="90" height="18" rx="9" fill="#dcfce7" stroke="#86efac"/>
    <text x="93" y="281" class="chip" text-anchor="middle">环境&amp;基础设施</text>

    <rect x="48" y="370" width="114" height="18" rx="9" fill="#ede9fe" stroke="#c4b5fd"/>
    <text x="105" y="383" class="chip" text-anchor="middle">研发加固（内网可用）</text>

    <rect x="48" y="540" width="76" height="18" rx="9" fill="#fee2e2" stroke="#fca5a5"/>
    <text x="86" y="553" class="chip" text-anchor="middle">联调&amp;测试</text>

    <rect x="48" y="642" width="76" height="18" rx="9" fill="#ffedd5" stroke="#fdba74"/>
    <text x="86" y="655" class="chip" text-anchor="middle">安全&amp;验收</text>

    <rect x="48" y="676" width="52" height="18" rx="9" fill="#e2e8f0" stroke="#cbd5e1"/>
    <text x="74" y="689" class="chip" text-anchor="middle">上线</text>

    <text x="176" y="214" class="label">需求澄清/范围冻结（MVP清单）</text>
    <text x="176" y="248" class="label">部署方案/网络与端口/域名证书确认</text>

    <text x="176" y="282" class="label">服务器/VM申请与开通（或资源确认）</text>
    <text x="176" y="316" class="label">数据库/Redis部署与连通性验证</text>
    <text x="176" y="350" class="label">反向代理/HTTPS/内网访问策略</text>

    <text x="176" y="384" class="label">配置化环境变量/多环境构建</text>
    <text x="176" y="418" class="label">登录与权限（本地账号/可选LDAP预留）</text>
    <text x="176" y="452" class="label">审计日志/错误告警/脱敏检查</text>
    <text x="176" y="486" class="label">数据库迁移脚本与初始化流程固化</text>

    <text x="176" y="520" class="label">端到端联调（创建任务→会诊→意见→报告）</text>
    <text x="176" y="554" class="label">测试用例/缺陷修复/回归</text>
    <text x="176" y="588" class="label">性能与并发冒烟（科室量级）</text>

    <text x="176" y="622" class="label">内网安全扫描与整改（或第三方测评）</text>
    <text x="176" y="656" class="label">科室UAT验收/培训/上线演练</text>

    <text x="176" y="690" class="label">上线后驻场支持（1-3天）</text>
  </g>

  <g clip-path="url(#clipChart)">
    <rect x="380.00" y="206" width="87.27" height="18" rx="7" fill="#bae6fd" stroke="#38bdf8"/>
    <text x="386.00" y="219" class="bar-text">a1 3d</text>

    <rect x="467.27" y="240" width="87.27" height="18" rx="7" fill="#bae6fd" stroke="#38bdf8"/>
    <text x="473.27" y="253" class="bar-text">a2 3d</text>

    <rect x="380.00" y="274" width="203.64" height="18" rx="7" fill="#bbf7d0" stroke="#22c55e"/>
    <text x="386.00" y="287" class="bar-text">b1 7d</text>

    <rect x="583.64" y="308" width="58.18" height="18" rx="7" fill="#bbf7d0" stroke="#22c55e"/>
    <text x="589.64" y="321" class="bar-text">b2 2d</text>

    <rect x="641.82" y="342" width="58.18" height="18" rx="7" fill="#bbf7d0" stroke="#22c55e"/>
    <text x="647.82" y="355" class="bar-text">b3 2d</text>

    <rect x="496.36" y="376" width="116.36" height="18" rx="7" fill="#ddd6fe" stroke="#8b5cf6"/>
    <text x="502.36" y="389" class="bar-text">c1 4d</text>

    <rect x="612.73" y="410" width="145.45" height="18" rx="7" fill="#ddd6fe" stroke="#8b5cf6"/>
    <text x="618.73" y="423" class="bar-text">c2 5d</text>

    <rect x="612.73" y="444" width="145.45" height="18" rx="7" fill="#ddd6fe" stroke="#8b5cf6"/>
    <text x="618.73" y="457" class="bar-text">c3 5d</text>

    <rect x="583.64" y="478" width="116.36" height="18" rx="7" fill="#ddd6fe" stroke="#8b5cf6"/>
    <text x="589.64" y="491" class="bar-text">c4 4d</text>

    <rect x="700.00" y="512" width="145.45" height="18" rx="7" fill="#fecaca" stroke="#ef4444"/>
    <text x="706.00" y="525" class="bar-text">d1 5d</text>

    <rect x="845.45" y="546" width="203.64" height="18" rx="7" fill="#fecaca" stroke="#ef4444"/>
    <text x="851.45" y="559" class="bar-text">d2 7d</text>

    <rect x="990.91" y="580" width="87.27" height="18" rx="7" fill="#fecaca" stroke="#ef4444"/>
    <text x="996.91" y="593" class="bar-text">d3 3d</text>

    <rect x="990.91" y="614" width="174.55" height="18" rx="7" fill="#ffedd5" stroke="#f97316"/>
    <text x="996.91" y="627" class="bar-text">e1 6d</text>

    <rect x="1165.45" y="648" width="87.27" height="18" rx="7" fill="#ffedd5" stroke="#f97316"/>
    <text x="1171.45" y="661" class="bar-text">e2 3d</text>

    <rect x="1310.91" y="682" width="87.27" height="18" rx="7" fill="#e2e8f0" stroke="#64748b"/>
    <polygon points="1336.00,691 1344.00,686 1344.00,696" fill="#64748b" opacity="0.85"/>
    <text x="1316.91" y="695" class="bar-text">f1 3d</text>
  </g>

  <g>
    <line x1="1310.91" y1="176" x2="1310.91" y2="700" stroke="#0f172a" stroke-width="1.2" stroke-dasharray="4 4" opacity="0.5"/>
    <polygon points="1310.91,718 1322.91,730 1310.91,742 1298.91,730" fill="#64748b" stroke="#475569"/>
    <text x="1340" y="734" class="label" text-anchor="end">01/31 正式上线（里程碑）</text>
  </g>

  <g>
    <rect x="48" y="740" width="1304" height="64" rx="10" fill="#f8fafc" stroke="#e2e8f0"/>
    <text x="62" y="770" class="small">图例：</text>
    <rect x="108" y="756" width="14" height="14" rx="3" fill="#bae6fd" stroke="#38bdf8"/>
    <text x="130" y="768" class="small">需求&amp;方案</text>
    <rect x="220" y="756" width="14" height="14" rx="3" fill="#bbf7d0" stroke="#22c55e"/>
    <text x="242" y="768" class="small">环境&amp;基础设施</text>
    <rect x="350" y="756" width="14" height="14" rx="3" fill="#ddd6fe" stroke="#8b5cf6"/>
    <text x="372" y="768" class="small">研发加固</text>
    <rect x="452" y="756" width="14" height="14" rx="3" fill="#fecaca" stroke="#ef4444"/>
    <text x="474" y="768" class="small">联调&amp;测试</text>
    <rect x="560" y="756" width="14" height="14" rx="3" fill="#ffedd5" stroke="#f97316"/>
    <text x="582" y="768" class="small">安全&amp;验收</text>
    <rect x="670" y="756" width="14" height="14" rx="3" fill="#e2e8f0" stroke="#64748b"/>
    <text x="692" y="768" class="small">上线支持</text>
    <polygon points="806,756 816,763 806,770 796,763" fill="#64748b" stroke="#475569"/>
    <text x="828" y="768" class="small">上线里程碑</text>
    <text x="62" y="792" class="small">注：f1（驻场支持）从 01/31 开始，持续 3 天，超出 01/31 的部分在图中被裁切。</text>
  </g>
</svg>
